<?xml version="1.0" encoding="UTF-8"?>
<mxfile host="app.diagrams.net">
  <diagram name="MRCS Training System" id="MRCS_TRAINING_001">
    <mxGraphModel dx="1200" dy="800" grid="1" gridSize="10" guides="1" tooltips="1" connect="1">
      <root>
        <mxCell id="0"/>
        <mxCell id="1" parent="0"/>
        <mxCell id="t1" value="admin" style="shape=rectangle;fillColor=#dae8fc;fontSize=12;" vertex="1" parent="1">
          <mxGeometry x="40" y="40" width="120" height="40" as="geometry"/>
        </mxCell>
        <mxCell id="t2" value="users" style="shape=rectangle;fillColor=#dae8fc;fontSize=12;" vertex="1" parent="1">
          <mxGeometry x="40" y="100" width="120" height="40" as="geometry"/>
        </mxCell>
        <mxCell id="t3" value="peserta" style="shape=rectangle;fillColor=#f8cecc;fontSize=12;" vertex="1" parent="1">
          <mxGeometry x="200" y="70" width="140" height="40" as="geometry"/>
        </mxCell>
        <mxCell id="t4" value="login_peserta" style="shape=rectangle;fillColor=#f8cecc;fontSize=12;" vertex="1" parent="1">
          <mxGeometry x="360" y="70" width="140" height="40" as="geometry"/>
        </mxCell>
        <mxCell id="t5" value="latihan" style="shape=rectangle;fillColor=#d5e8d4;fontSize=12;" vertex="1" parent="1">
          <mxGeometry x="40" y="200" width="120" height="40" as="geometry"/>
        </mxCell>
        <mxCell id="t6" value="jadual_latihan" style="shape=rectangle;fillColor=#d5e8d4;fontSize=12;" vertex="1" parent="1">
          <mxGeometry x="200" y="200" width="140" height="40" as="geometry"/>
        </mxCell>
        <mxCell id="t7" value="keputusan_latihan" style="shape=rectangle;fillColor=#ffe6cc;fontSize=12;" vertex="1" parent="1">
          <mxGeometry x="120" y="280" width="160" height="40" as="geometry"/>
        </mxCell>
        <mxCell id="t8" value="pembayaran" style="shape=rectangle;fillColor=#ece5cd;fontSize=12;" vertex="1" parent="1">
          <mxGeometry x="40" y="360" width="120" height="40" as="geometry"/>
        </mxCell>
        <mxCell id="t9" value="transaksi_bank" style="shape=rectangle;fillColor=#ece5cd;fontSize=12;" vertex="1" parent="1">
          <mxGeometry x="200" y="360" width="140" height="40" as="geometry"/>
        </mxCell>
        <mxCell id="t10" value="resit" style="shape=rectangle;fillColor=#ece5cd;fontSize=12;" vertex="1" parent="1">
          <mxGeometry x="360" y="330" width="100" height="40" as="geometry"/>
        </mxCell>
        <mxCell id="t11" value="resit_invoice" style="shape=rectangle;fillColor=#ece5cd;fontSize=12;" vertex="1" parent="1">
          <mxGeometry x="360" y="390" width="120" height="40" as="geometry"/>
        </mxCell>
        <mxCell id="e1" style="endArrow=block;" edge="1" parent="1" source="t2" target="t3"><mxGeometry relative="1" as="geometry"/></mxCell>
        <mxCell id="e2" style="endArrow=block;" edge="1" parent="1" source="t1" target="t3"><mxGeometry relative="1" as="geometry"/></mxCell>
        <mxCell id="e3" style="endArrow=block;" edge="1" parent="1" source="t3" target="t4"><mxGeometry relative="1" as="geometry"/></mxCell>
        <mxCell id="e4" style="endArrow=block;" edge="1" parent="1" source="t5" target="t6"><mxGeometry relative="1" as="geometry"/></mxCell>
        <mxCell id="e5" style="endArrow=block;" edge="1" parent="1" source="t5" target="t7"><mxGeometry relative="1" as="geometry"/></mxCell>
        <mxCell id="e6" style="endArrow=block;" edge="1" parent="1" source="t3" target="t7"><mxGeometry relative="1" as="geometry"/></mxCell>
        <mxCell id="e7" style="endArrow=block;" edge="1" parent="1" source="t3" target="t8"><mxGeometry relative="1" as="geometry"/></mxCell>
        <mxCell id="e8" style="endArrow=block;" edge="1" parent="1" source="t8" target="t9"><mxGeometry relative="1" as="geometry"/></mxCell>
        <mxCell id="e9" style="endArrow=block;" edge="1" parent="1" source="t8" target="t10"><mxGeometry relative="1" as="geometry"/></mxCell>
        <mxCell id="e10" style="endArrow=block;" edge="1" parent="1" source="t8" target="t11"><mxGeometry relative="1" as="geometry"/></mxCell>
      </root>
    </mxGraphModel>
  </diagram>
</mxfile>
